<svg width="31" height="30" viewBox="0 0 31 30" fill="none" xmlns="http://www.w3.org/2000/svg">
<path d="M30.4981 26.055C29.5271 25.1953 28.677 24.2098 27.9707 23.125C27.1996 21.6275 26.7374 19.9922 26.6113 18.315V13.375C26.618 10.7406 25.6557 8.19447 23.9054 6.21497C22.155 4.23547 19.737 2.95886 17.1057 2.625V1.335C17.1057 0.980936 16.9641 0.641374 16.712 0.391013C16.4599 0.140651 16.118 0 15.7615 0C15.4049 0 15.063 0.140651 14.8109 0.391013C14.5588 0.641374 14.4172 0.980936 14.4172 1.335V2.645C11.8095 3.00293 9.42069 4.28726 7.69334 6.26011C5.96598 8.23296 5.01708 10.7606 5.02239 13.375V18.315C4.89627 19.9922 4.43411 21.6275 3.66301 23.125C2.96911 24.2073 2.13265 25.1927 1.17586 26.055C1.06845 26.1487 0.982364 26.2641 0.923333 26.3934C0.864302 26.5227 0.833677 26.663 0.833496 26.805V28.165C0.833496 28.4302 0.939585 28.6846 1.12842 28.8721C1.31726 29.0596 1.57338 29.165 1.84044 29.165H29.8335C30.1006 29.165 30.3567 29.0596 30.5455 28.8721C30.7344 28.6846 30.8405 28.4302 30.8405 28.165V26.805C30.8403 26.663 30.8097 26.5227 30.7506 26.3934C30.6916 26.2641 30.6055 26.1487 30.4981 26.055ZM2.92794 27.165C3.86481 26.2662 4.68969 25.259 5.38489 24.165C6.3562 22.3565 6.92293 20.361 7.04635 18.315V13.375C7.00641 12.203 7.20436 11.0351 7.62841 9.94067C8.05245 8.84626 8.69392 7.84778 9.51462 7.0047C10.3353 6.16162 11.3185 5.49117 12.4055 5.03327C13.4925 4.57538 14.6612 4.33941 15.842 4.33941C17.0228 4.33941 18.1915 4.57538 19.2785 5.03327C20.3656 5.49117 21.3487 6.16162 22.1694 7.0047C22.9901 7.84778 23.6316 8.84626 24.0556 9.94067C24.4797 11.0351 24.6776 12.203 24.6377 13.375V18.315C24.7611 20.361 25.3278 22.3565 26.2991 24.165C26.9943 25.259 27.8192 26.2662 28.7561 27.165H2.92794Z" fill="#3763AC"/>
</svg>
